PathFileType	4	(X/Y/Z)	Patient4_TMGait_0pt5_02_right_24.trc.trc
DataRate	CameraRate	NumFrames	NumMarkers	Units	OrigDataRate	OrigDataStartFrame	OrigNumFrames
74.468085106383	74.468085106383	6	33	mm	74.468085106383	71	       141
Frame#	Time	Sacral			L.Shoulder			Chest			R.Shoulder			Neck			R.ASIS			L.ASIS			R.Thigh.Superior			R.Thigh.Lateral			R.Thigh.Inferior			R.Patella			L.Thigh.Superior			L.Thigh.Lateral			L.Thigh.Inferior			L.Patella			L.Shank.Superior			L.Shank.Lateral			L.Shank.Inferior			R.Shank.Superior			R.Shank.Lateral			R.Shank.Inferior			R.Heel			R.Midfoot.Superior			R.Midfoot.Lateral			R.Toe			L.Heel			L.Midfoot.Lateral			L.Midfoot.Superior			L.Toe			L.Elbow			L.Wrist			R.Elbow			R.Wrist			
		X1	Y1	Z1	X2	Y2	Z2	X3	Y3	Z3	X4	Y4	Z4	X5	Y5	Z5	X6	Y6	Z6	X7	Y7	Z7	X8	Y8	Z8	X9	Y9	Z9	X10	Y10	Z10	X11	Y11	Z11	X12	Y12	Z12	X13	Y13	Z13	X14	Y14	Z14	X15	Y15	Z15	X16	Y16	Z16	X17	Y17	Z17	X18	Y18	Z18	X19	Y19	Z19	X20	Y20	Z20	X21	Y21	Z21	X22	Y22	Z22	X23	Y23	Z23	X24	Y24	Z24	X25	Y25	Z25	X26	Y26	Z26	X27	Y27	Z27	X28	Y28	Z28	X29	Y29	Z29	X30	Y30	Z30	X31	Y31	Z31	X32	Y32	Z32	X33	Y33	Z33	

71	32.180000000000	557.117279435021	1007.350607368815	512.090948431200	731.012927041487	1430.368856856293	324.553707576028	847.460067842475	1352.726441648120	472.876317318109	784.196482108350	1429.148962264603	655.474877052380	747.583411102857	1487.793444211742	476.587256784025	787.754050762061	932.631789618422	615.201903479890	759.245284736683	952.406490985984	341.428691420910	789.483903970333	721.491727575618	586.267284748899	689.532962646644	626.514415139109	648.363573027296	750.483708840775	562.160399179446	566.617718959264	732.629829621098	475.932161174136	570.087690913196	828.001061457455	763.325967927937	373.203708913125	767.878838236070	635.641301022266	303.727684222299	866.303867921937	573.253737166945	367.650321906893	888.877560053287	508.850113255679	368.672379689129	874.301557540861	437.850669491593	359.409129403371	811.914966504371	305.593323162671	312.095634325946	899.444232653823	210.552654847214	372.068321303446	693.855892428467	391.534688738135	576.712556250230	609.917973055828	297.659912609477	637.794564433082	637.110435913527	199.161024828096	573.216744605750	484.360136556833	42.957982748033	540.635300355132	656.064693742457	96.053813569335	579.000291271347	566.320230731912	36.138516154867	616.495911869093	774.664008998641	40.183194744039	610.355365636227	815.012698100549	37.378292009526	415.639912427935	887.756210827181	39.177547036817	334.432415034688	962.740277168064	110.892746986894	355.061450027824	1094.208248797041	73.853132811725	327.213967122172	595.135707895682	1100.624881342059	226.239394969665	583.952742396640	839.289638177485	234.485198069616	879.532372037242	1096.643679240505	757.296266173839	1123.718791780064	1108.672035896519	692.628338382708	
72	32.193428571429	558.665855999886	1005.288065010357	509.801437845791	729.743708874418	1428.509750322900	321.115353219133	846.511601506132	1352.398660301055	469.950903899248	782.282680367147	1428.840314630860	652.250633413829	745.919873454790	1486.750196246446	472.841550719096	789.493831838242	931.801954044184	613.826439172066	761.422426190756	950.975771755820	339.955731888044	790.597028414780	720.180591152161	585.006197977134	689.688892959695	625.608506757544	646.990534631444	750.003404630677	560.792805458496	565.376409658709	731.105380804213	474.255901951333	568.562350041517	830.907594445704	761.679534326096	371.603135260590	769.347990538650	633.963009521524	303.198153671641	868.368359733883	572.015220664871	366.645991479894	889.816796125167	506.667677661669	368.311568787267	874.790735138216	435.200257707173	359.284969879098	810.423403608148	303.828572890730	312.005905839989	896.039708836247	207.489087084425	372.528230269574	691.278797008169	390.297883211073	575.482223657963	606.404970939895	297.546918520636	637.073827124651	631.983208884380	198.613392903381	572.593302735113	477.676015180034	43.345254262997	540.685956963950	649.430463223499	96.076224983407	578.868740591632	559.644144690114	36.279120319645	616.464532335615	767.988524901205	39.977934735420	610.397851895429	807.428495039163	37.196560543882	416.083634252833	880.230281210808	37.500024163775	334.761434647056	957.530312533205	106.594196378539	356.156236865945	1088.134235004263	65.503070088048	327.981495843456	597.888479027933	1096.678768967441	223.688847202683	590.443235995783	835.112774626901	232.043642693092	877.328587838801	1095.816338287599	754.360421724437	1121.268536352649	1106.859819464230	688.506433075694	
73	32.206857142857	560.303162741732	1003.547988178373	507.455234771060	728.512425513367	1426.902467453482	317.606595417646	845.646908536202	1352.359307910490	466.925093717075	780.510104190997	1428.823776893752	648.936499738702	744.333950767985	1485.979860292540	468.990593374064	791.310191789450	931.149056881475	612.201235558098	763.614808950642	949.962136221270	338.314532906602	791.861598471950	719.068662047419	583.585536861308	689.998669116450	624.913558497195	645.443085065361	749.778081275339	559.613291713534	564.035081633724	729.903131775256	472.698014542543	567.004863879889	833.777183822817	760.434284686658	369.978458452023	771.117127461417	632.795952686119	302.459107690094	870.567941346089	571.219257375238	365.677423513446	890.806605648345	504.890770985987	367.930252666610	875.398461832513	432.953572156802	359.022657643249	809.148875926383	302.485936238607	311.662657686247	892.704585987187	204.859390275928	372.848481308567	688.943799132330	389.264082814664	574.225507435336	603.042045292903	297.737367797704	636.327004925194	627.008489744131	198.320259650793	572.033680843464	471.059959692181	44.115508535550	540.807545458889	642.956452984286	96.180893334334	578.809427059482	553.044315687842	36.580927180388	616.452324606670	761.387570454716	39.715938937566	610.453502174398	800.037570043926	37.099536805445	416.339293864905	872.898540424671	36.234033109618	334.930460076711	952.159693578143	103.040638804910	357.111050656201	1082.003330664491	58.529295010760	328.642419308566	601.220731800568	1092.799821103340	221.069717157336	597.859998825016	831.044784089071	229.308645027304	874.380318262218	1095.025156804187	751.530576497387	1118.172257730024	1103.813403261081	684.585879203613	
74	32.220285714286	561.964301843181	1002.239150128780	505.049634923765	727.339326498431	1425.642329208189	314.082457940254	844.888863012898	1352.634644642342	463.820243035432	778.968565001449	1429.138751943609	645.567005335157	742.873711194491	1485.540790243798	465.105815039528	793.127274377451	930.735780871753	610.282751884108	765.741579951133	949.432988932686	336.448277251599	793.180726203104	718.226319420419	581.960716266769	690.436173187521	624.484040918613	643.716928068122	749.819726473693	558.682961188308	562.593404336067	729.096804995950	471.288644687329	565.476620140918	836.540803568910	759.715507550974	368.357892415814	773.180322276424	632.199953491393	301.515108493021	872.850561300805	570.901985582604	364.734772298262	891.825265326339	503.571782729258	367.503500326105	876.063882366664	431.167929409763	358.628026407603	808.041430140428	301.621736568883	311.084765470142	889.401667568195	202.742494865345	373.034714892882	686.894788656193	388.468724795301	572.980586985635	599.846869344444	298.283946464270	635.569780984592	622.221996970474	198.330768738744	571.568818328541	464.526931682456	45.358703182758	541.014465413131	636.682444622153	96.378237275650	578.843312546856	546.530266822761	37.088378521002	616.472645558967	754.863569005920	39.407906719718	610.515779793752	792.932082505216	37.081997181191	416.449331027199	865.843172897210	35.383491757820	334.976811878131	946.637397169888	100.336869146335	357.891752533121	1075.858167374826	53.166890963217	329.164759118952	605.056865931978	1089.156174537860	218.403029460311	606.191703879548	827.277547316347	226.274914702294	870.721563253732	1094.336360633916	748.813331827688	1114.423686963493	1099.507387667245	680.871615395009	
75	32.233714285714	563.594612499431	1001.429680431415	502.567025458810	726.242738768603	1424.800038609194	310.587892692224	844.251788540416	1353.228711783850	460.656338576478	777.721215433317	1429.798321361892	642.172877733934	741.574082180571	1485.466549556449	461.254227126126	794.872832327565	930.613652142586	608.054521224210	767.746417760849	949.405695168783	334.313348350558	794.479064871065	717.710439148994	580.114425238540	690.997688146020	624.351449662829	641.825203329183	750.166143816402	558.045481351337	561.065917083775	728.783773761010	470.039786434469	564.054507107535	839.149519162267	759.579600858286	366.759946429519	775.475298754974	632.164249112411	300.384663679277	875.119878061457	571.016308514585	363.791101868723	892.807542597181	502.689486647317	367.011471718506	876.676347824924	429.835107316286	358.125611408137	806.991068291772	301.226618874622	310.307316922671	886.040747029347	201.146014052761	373.108620942757	685.196894633908	387.926588089774	571.793879789706	596.856831712958	299.221425977052	634.822129584262	617.670341695152	198.678478319223	571.227958101233	458.095732353775	47.158293266336	541.315206518358	630.646893642996	96.672483158666	578.987382327777	540.110606982582	37.846473702414	616.538344940499	748.411577731260	39.066554529191	610.575699733469	786.106367270663	37.125538668583	416.452410252488	859.054678271542	34.902660166631	334.935813543186	940.939984543079	98.474156695833	358.485003850621	1069.690980535949	49.430683290576	329.536893185100	609.288192827335	1085.898214432735	215.699974843212	615.423409066063	823.994587109672	222.944560204427	866.405764157377	1093.811520822724	746.214756245767	1110.011504548781	1093.929248765217	677.370281653531	
76	32.247142857143	565.154263727976	1001.138537212463	499.977775615110	725.241959792225	1424.412501684521	307.151482946569	843.740799351187	1354.122330831301	457.451402904939	776.792985949746	1430.786459612914	638.777669171050	740.453580309744	1485.761066667781	457.488769841206	796.485459429328	930.813092044911	605.532433793754	769.604119595069	949.845074987330	331.890712938948	795.719555927679	717.554731023181	578.063273973646	691.707511239065	624.516193102981	639.796990707005	750.882315152645	557.718778045491	559.480438451153	729.076877708515	468.942744176194	562.819501427427	841.564900308688	759.993418384547	365.182246533940	777.863667151770	632.604820219045	299.093342939430	877.228325964008	571.439934808132	362.806913531479	893.639060973180	502.162106653280	366.443284335758	877.086326675144	428.893205523306	357.547094609732	805.851528364702	301.229957573308	309.376677323861	882.515131303645	200.019142845627	373.100925757092	683.932925966941	387.629248793882	570.712744351057	594.129162943350	300.563964793171	634.103297062256	613.409868295613	199.378899578912	571.033221108117	451.790960273971	49.586876488553	541.708428055160	624.884706964066	97.062454447188	579.250899236481	533.793346130669	38.900590860249	616.657756464036	742.018316164085	38.704110338203	610.623001263142	779.499261908893	37.205914442289	416.383087949194	852.472025965632	34.714424994621	334.838607002780	935.043347903092	97.353694415231	358.898225539616	1063.474915939568	47.154131715686	329.766403086969	613.781284111618	1083.143099105475	212.957938053129	625.531617788247	821.356916274525	219.329674677707	861.504870647045	1093.500372687601	743.738397968801	1104.918411586602	1087.083796573850	674.091692640617	
